<mxfile host="app.diagrams.net" modified="2022-05-04T18:57:55.953Z" agent="5.0 (Windows NT 10.0; Win64; x64) AppleWebKit/537.36 (KHTML, like Gecko) Chrome/100.0.4896.127 Safari/537.36" etag="yf_aAtrXzEIK7aXoGsAJ" version="18.0.0" type="github" pages="2">
  <diagram id="R2lEEEUBdFMjLlhIrx00" name="Concept">
    <mxGraphModel dx="1038" dy="539" grid="1" gridSize="10" guides="1" tooltips="1" connect="1" arrows="1" fold="1" page="1" pageScale="1" pageWidth="850" pageHeight="1100" math="0" shadow="0" extFonts="Permanent Marker^https://fonts.googleapis.com/css?family=Permanent+Marker">
      <root>
        <mxCell id="0" />
        <mxCell id="1" parent="0" />
        <mxCell id="-1i715gDwKemt5u3NLit-1" value="Products" style="whiteSpace=wrap;html=1;align=center;" parent="1" vertex="1">
          <mxGeometry x="170" y="120" width="100" height="40" as="geometry" />
        </mxCell>
        <mxCell id="-1i715gDwKemt5u3NLit-2" value="Time" style="whiteSpace=wrap;html=1;align=center;" parent="1" vertex="1">
          <mxGeometry x="170" y="240" width="100" height="40" as="geometry" />
        </mxCell>
        <mxCell id="-1i715gDwKemt5u3NLit-3" value="Regions" style="whiteSpace=wrap;html=1;align=center;" parent="1" vertex="1">
          <mxGeometry x="510" y="120" width="100" height="40" as="geometry" />
        </mxCell>
        <mxCell id="-1i715gDwKemt5u3NLit-4" value="Sales" style="whiteSpace=wrap;html=1;align=center;" parent="1" vertex="1">
          <mxGeometry x="510" y="240" width="100" height="40" as="geometry" />
        </mxCell>
        <mxCell id="-1i715gDwKemt5u3NLit-6" value="" style="edgeStyle=entityRelationEdgeStyle;fontSize=12;html=1;endArrow=ERmany;startArrow=ERmany;rounded=0;exitX=1;exitY=0.5;exitDx=0;exitDy=0;entryX=0;entryY=0.25;entryDx=0;entryDy=0;" parent="1" source="-1i715gDwKemt5u3NLit-1" target="-1i715gDwKemt5u3NLit-4" edge="1">
          <mxGeometry width="100" height="100" relative="1" as="geometry">
            <mxPoint x="400" y="300" as="sourcePoint" />
            <mxPoint x="500" y="250" as="targetPoint" />
          </mxGeometry>
        </mxCell>
        <mxCell id="-1i715gDwKemt5u3NLit-9" value="" style="edgeStyle=entityRelationEdgeStyle;fontSize=12;html=1;endArrow=ERmany;startArrow=ERmany;rounded=0;exitX=1;exitY=0.5;exitDx=0;exitDy=0;entryX=0;entryY=0.5;entryDx=0;entryDy=0;" parent="1" source="-1i715gDwKemt5u3NLit-2" target="-1i715gDwKemt5u3NLit-4" edge="1">
          <mxGeometry width="100" height="100" relative="1" as="geometry">
            <mxPoint x="400" y="300" as="sourcePoint" />
            <mxPoint x="500" y="200" as="targetPoint" />
          </mxGeometry>
        </mxCell>
        <mxCell id="-1i715gDwKemt5u3NLit-13" value="" style="edgeStyle=entityRelationEdgeStyle;fontSize=12;html=1;endArrow=ERoneToMany;rounded=0;exitX=1;exitY=0.5;exitDx=0;exitDy=0;entryX=1;entryY=0.5;entryDx=0;entryDy=0;" parent="1" source="-1i715gDwKemt5u3NLit-3" target="-1i715gDwKemt5u3NLit-4" edge="1">
          <mxGeometry width="100" height="100" relative="1" as="geometry">
            <mxPoint x="400" y="300" as="sourcePoint" />
            <mxPoint x="500" y="200" as="targetPoint" />
          </mxGeometry>
        </mxCell>
      </root>
    </mxGraphModel>
  </diagram>
  <diagram name="Logical" id="mxHhxba6xyUphgLSQdfG">
    <mxGraphModel dx="1038" dy="539" grid="1" gridSize="10" guides="1" tooltips="1" connect="1" arrows="1" fold="1" page="1" pageScale="1" pageWidth="850" pageHeight="1100" math="0" shadow="0" extFonts="Permanent Marker^https://fonts.googleapis.com/css?family=Permanent+Marker">
      <root>
        <mxCell id="IBTWl2cMDWuodHhTnuI9-0" />
        <mxCell id="IBTWl2cMDWuodHhTnuI9-1" parent="IBTWl2cMDWuodHhTnuI9-0" />
        <mxCell id="IBTWl2cMDWuodHhTnuI9-6" value="" style="edgeStyle=entityRelationEdgeStyle;fontSize=12;html=1;endArrow=ERmany;startArrow=ERmany;rounded=0;exitX=1;exitY=0.5;exitDx=0;exitDy=0;entryX=0;entryY=0.25;entryDx=0;entryDy=0;" edge="1" parent="IBTWl2cMDWuodHhTnuI9-1" target="wzQoN6SHF73s6Re_XEB6-11">
          <mxGeometry width="100" height="100" relative="1" as="geometry">
            <mxPoint x="270" y="140" as="sourcePoint" />
            <mxPoint x="510" y="250" as="targetPoint" />
          </mxGeometry>
        </mxCell>
        <mxCell id="IBTWl2cMDWuodHhTnuI9-7" value="" style="edgeStyle=entityRelationEdgeStyle;fontSize=12;html=1;endArrow=ERmany;startArrow=ERmany;rounded=0;exitX=1;exitY=0.25;exitDx=0;exitDy=0;entryX=0;entryY=0.75;entryDx=0;entryDy=0;" edge="1" parent="IBTWl2cMDWuodHhTnuI9-1" source="wzQoN6SHF73s6Re_XEB6-1" target="wzQoN6SHF73s6Re_XEB6-11">
          <mxGeometry width="100" height="100" relative="1" as="geometry">
            <mxPoint x="270" y="260" as="sourcePoint" />
            <mxPoint x="510" y="260" as="targetPoint" />
          </mxGeometry>
        </mxCell>
        <mxCell id="IBTWl2cMDWuodHhTnuI9-8" value="" style="edgeStyle=entityRelationEdgeStyle;fontSize=12;html=1;endArrow=ERoneToMany;rounded=0;exitX=1;exitY=0.25;exitDx=0;exitDy=0;" edge="1" parent="IBTWl2cMDWuodHhTnuI9-1" source="wzQoN6SHF73s6Re_XEB6-5" target="wzQoN6SHF73s6Re_XEB6-11">
          <mxGeometry width="100" height="100" relative="1" as="geometry">
            <mxPoint x="610" y="140" as="sourcePoint" />
            <mxPoint x="820" y="240" as="targetPoint" />
          </mxGeometry>
        </mxCell>
        <mxCell id="wzQoN6SHF73s6Re_XEB6-0" value="Time" style="swimlane;childLayout=stackLayout;horizontal=1;startSize=30;horizontalStack=0;rounded=1;fontSize=14;fontStyle=0;strokeWidth=2;resizeParent=0;resizeLast=1;shadow=0;dashed=0;align=center;" vertex="1" parent="IBTWl2cMDWuodHhTnuI9-1">
          <mxGeometry x="110" y="220" width="160" height="120" as="geometry" />
        </mxCell>
        <mxCell id="wzQoN6SHF73s6Re_XEB6-1" value="+Date-time&#xa;+Detail_time&#xa;+Day_of_week&#xa;+Time_ID" style="align=left;strokeColor=none;fillColor=none;spacingLeft=4;fontSize=12;verticalAlign=top;resizable=0;rotatable=0;part=1;" vertex="1" parent="wzQoN6SHF73s6Re_XEB6-0">
          <mxGeometry y="30" width="160" height="90" as="geometry" />
        </mxCell>
        <mxCell id="wzQoN6SHF73s6Re_XEB6-12" style="align=left;strokeColor=none;fillColor=none;spacingLeft=4;fontSize=12;verticalAlign=top;resizable=0;rotatable=0;part=1;" vertex="1" parent="wzQoN6SHF73s6Re_XEB6-0">
          <mxGeometry y="120" width="160" as="geometry" />
        </mxCell>
        <mxCell id="wzQoN6SHF73s6Re_XEB6-13" style="align=left;strokeColor=none;fillColor=none;spacingLeft=4;fontSize=12;verticalAlign=top;resizable=0;rotatable=0;part=1;" vertex="1" parent="wzQoN6SHF73s6Re_XEB6-0">
          <mxGeometry y="120" width="160" as="geometry" />
        </mxCell>
        <mxCell id="wzQoN6SHF73s6Re_XEB6-2" value="Products" style="swimlane;childLayout=stackLayout;horizontal=1;startSize=30;horizontalStack=0;rounded=1;fontSize=14;fontStyle=0;strokeWidth=2;resizeParent=0;resizeLast=1;shadow=0;dashed=0;align=center;" vertex="1" parent="IBTWl2cMDWuodHhTnuI9-1">
          <mxGeometry x="110" y="70" width="160" height="120" as="geometry" />
        </mxCell>
        <mxCell id="wzQoN6SHF73s6Re_XEB6-3" value="+Priduct_name&#xa;+Product_discription&#xa;+Product_ID" style="align=left;strokeColor=none;fillColor=none;spacingLeft=4;fontSize=12;verticalAlign=top;resizable=0;rotatable=0;part=1;" vertex="1" parent="wzQoN6SHF73s6Re_XEB6-2">
          <mxGeometry y="30" width="160" height="90" as="geometry" />
        </mxCell>
        <mxCell id="wzQoN6SHF73s6Re_XEB6-4" value="Regions" style="swimlane;childLayout=stackLayout;horizontal=1;startSize=30;horizontalStack=0;rounded=1;fontSize=14;fontStyle=0;strokeWidth=2;resizeParent=0;resizeLast=1;shadow=0;dashed=0;align=center;" vertex="1" parent="IBTWl2cMDWuodHhTnuI9-1">
          <mxGeometry x="460" y="60" width="160" height="120" as="geometry" />
        </mxCell>
        <mxCell id="wzQoN6SHF73s6Re_XEB6-5" value="+Regions_name&#xa;+Regions_description&#xa;+Region_ID" style="align=left;strokeColor=none;fillColor=none;spacingLeft=4;fontSize=12;verticalAlign=top;resizable=0;rotatable=0;part=1;" vertex="1" parent="wzQoN6SHF73s6Re_XEB6-4">
          <mxGeometry y="30" width="160" height="90" as="geometry" />
        </mxCell>
        <mxCell id="wzQoN6SHF73s6Re_XEB6-10" value="Sales" style="swimlane;childLayout=stackLayout;horizontal=1;startSize=30;horizontalStack=0;rounded=1;fontSize=14;fontStyle=0;strokeWidth=2;resizeParent=0;resizeLast=1;shadow=0;dashed=0;align=center;" vertex="1" parent="IBTWl2cMDWuodHhTnuI9-1">
          <mxGeometry x="460" y="250" width="160" height="120" as="geometry" />
        </mxCell>
        <mxCell id="wzQoN6SHF73s6Re_XEB6-11" value="+Price&#xa;+Sales_ID" style="align=left;strokeColor=none;fillColor=none;spacingLeft=4;fontSize=12;verticalAlign=top;resizable=0;rotatable=0;part=1;" vertex="1" parent="wzQoN6SHF73s6Re_XEB6-10">
          <mxGeometry y="30" width="160" height="90" as="geometry" />
        </mxCell>
      </root>
    </mxGraphModel>
  </diagram>
</mxfile>
